HIERARCHY
ROOT Hips
{
  OFFSET 0 0 0
  CHANNELS 6 Xposition Yposition Zposition Zrotation Xrotation Yrotation
  JOINT LeftHip
  {
    OFFSET 3.43 0 5.68434e-014
    CHANNELS 3 Zrotation Xrotation Yrotation
    JOINT LeftKnee
    {
      OFFSET 1.42109e-013 -18.47 5.11591e-013
      CHANNELS 3 Zrotation Xrotation Yrotation
      JOINT LeftAnkle
      {
        OFFSET 7.53175e-013 -17.95 -7.53175e-013
        CHANNELS 3 Zrotation Xrotation Yrotation
        End Site
        {
          OFFSET 0 -3.12 0
        }
      }
    }
  }
  JOINT RightHip
  {
    OFFSET -3.43 -2.84217e-014 1.42109e-014
    CHANNELS 3 Zrotation Xrotation Yrotation
    JOINT RightKnee
    {
      OFFSET 1.42109e-013 -18.47 4.26326e-014
      CHANNELS 3 Zrotation Xrotation Yrotation
      JOINT RightAnkle
      {
        OFFSET 4.54747e-013 -17.95 -4.29168e-012
        CHANNELS 3 Zrotation Xrotation Yrotation
        End Site
        {
          OFFSET 0 -3.12 0
        }
      }
    }
  }
  JOINT Chest
  {
    OFFSET 2.27374e-013 4.57 5.68434e-014
    CHANNELS 3 Zrotation Xrotation Yrotation
    JOINT Chest2
    {
      OFFSET -1.42109e-014 6.57 1.56319e-013
      CHANNELS 3 Zrotation Xrotation Yrotation
      JOINT LeftCollar
      {
        OFFSET 1.06 4.19 1.76
        CHANNELS 3 Zrotation Xrotation Yrotation
        JOINT LeftShoulder
        {
          OFFSET 5.81 -2.06057e-013 3.83693e-013
          CHANNELS 3 Zrotation Xrotation Yrotation
          JOINT LeftElbow
          {
            OFFSET 6.39488e-013 -12.08 1.06581e-012
            CHANNELS 3 Zrotation Xrotation Yrotation
            JOINT LeftWrist
            {
              OFFSET 1.95257e-011 -9.82 1.46656e-011
              CHANNELS 3 Zrotation Xrotation Yrotation
              End Site
              {
                OFFSET 0 -7.37 0
              }
            }
          }
        }
      }
      JOINT RightCollar
      {
        OFFSET -1.06 4.19 1.76
        CHANNELS 3 Zrotation Xrotation Yrotation
        JOINT RightShoulder
        {
          OFFSET -6.06 -7.81597e-014 2.84217e-013
          CHANNELS 3 Zrotation Xrotation Yrotation
          JOINT RightElbow
          {
            OFFSET 2.34479e-013 -11.08 1.42109e-014
            CHANNELS 3 Zrotation Xrotation Yrotation
            JOINT RightWrist
            {
              OFFSET -8.2423e-013 -9.82 5.41434e-012
              CHANNELS 3 Zrotation Xrotation Yrotation
              End Site
              {
                OFFSET 0 -7.14001 0
              }
            }
          }
        }
      }
      JOINT Neck
      {
        OFFSET 1.42109e-014 4.05 2.98428e-013
        CHANNELS 3 Zrotation Xrotation Yrotation
        JOINT Head
        {
          OFFSET -1.98952e-013 5.19 -4.05009e-012
          CHANNELS 3 Zrotation Xrotation Yrotation
          End Site
          {
            OFFSET 0 4.14001 0
          }
        }
      }
    }
  }
}
MOTION
Frames:	7
Frame Time:	0.0333333
105.155 39.0038 89.8071 -6.11405 -4.33529 -83.9926 -9.3601 -2.86671 -8.77241 -0.933496 22.193 8.53185 3.33848 -13.4438 0.393585 -2.31761 -20.5796 -0.922585 -9.2666 64.5491 -1.35869 -4.86676 -5.29143 -0.225024 -2.40827 2.83035 -2.5621 -2.93157 4.30622 -3.44445 4.90021 -0.00169695 1.9485 16.8538 -11.6214 6.21232 -6.81137 -10.8546 -35.6206 6.75416 3.1392 -0.185289 -2.49273 0.190522 -4.34239 -18.7147 3.03832 -1.53473 9.98136 -14.8082 37.5846 -2.86611 -0.0330781 -0.000827507 1.89819 -5.69981 -1.1705 1.76508 -5.8789 -0.365023 
103.756 38.9883 89.7777 -5.9048 -3.3709 -82.2507 -7.81202 -1.03012 -8.1321 -0.657469 22.4082 6.20091 3.34632 -14.7743 0.433968 -1.75476 -23.6617 -0.697641 -5.39027 56.1267 -7.96437 -5.48887 -7.05061 -0.338405 -1.80183 2.93592 -3.29281 -2.58571 4.39599 -4.29187 5.23393 0.00374131 1.83256 16.5078 -15.0135 5.54138 -6.84811 -11.8496 -34.9486 7.19813 3.02374 -0.190232 -2.44615 0.185504 -4.48803 -18.5642 4.00994 -1.7792 10.0113 -15.704 37.4248 -2.81374 -0.113334 -0.00278342 2.11003 -5.64464 -1.37825 1.83436 -5.57516 -0.419023 
102.37 38.9116 89.7385 -5.66098 -2.70612 -80.5413 -6.55408 0.640129 -7.6602 -0.340589 22.9531 4.14248 3.29729 -17.1857 0.498382 -1.90041 -25.1719 -0.617364 -2.90195 44.2643 -12.8096 -5.47278 -8.15135 -0.390254 -1.38229 3.05207 -3.93546 -2.42807 4.48444 -5.00837 5.55707 0.00838331 1.72435 16.1782 -18.0913 4.83394 -6.96457 -13.3361 -34.261 7.60879 2.84008 -0.188895 -2.36455 0.179366 -4.6156 -18.3359 4.72568 -1.9527 10.0198 -16.3398 37.3631 -2.54513 -0.269519 -0.00598712 2.38509 -5.66993 -1.63579 1.8918 -5.37506 -0.537944 
100.939 38.7648 89.6895 -5.46366 -2.46162 -79.0443 -5.54557 2.52402 -7.24055 -0.230165 23.2805 2.40585 3.31376 -19.5698 0.571639 -2.53966 -24.8547 -0.539644 -1.80328 29.9036 -15.4667 -3.92799 -8.65919 -0.297504 -1.25265 3.18477 -4.45264 -2.46878 4.59546 -5.55106 5.82013 0.0115962 1.62013 15.9432 -20.6396 4.13685 -7.17922 -15.2025 -33.7222 7.96979 2.59561 -0.180846 -2.23284 0.171774 -4.70987 -18.0593 5.17277 -2.08088 9.94422 -16.5804 37.3713 -2.17876 -0.440447 -0.00837539 2.68351 -5.75255 -1.89703 1.93187 -5.28204 -0.68363 
99.3462 38.5134 89.6318 -5.36436 -2.95106 -77.8282 -5.00614 4.93756 -6.79487 -0.351718 23.3514 0.765394 3.4189 -22.0422 0.666065 -3.53145 -23.3788 0.137425 -2.02525 16.4497 -16.7255 -0.558026 -8.59025 -0.0419107 -1.75991 3.25271 -4.84878 -2.63576 4.6688 -5.93045 5.98388 0.0131744 1.53429 15.8457 -22.3908 3.53549 -7.4742 -17.1801 -33.5234 8.24899 2.32187 -0.167455 -2.06522 0.163295 -4.7715 -17.8236 5.51105 -2.21014 9.76048 -16.3991 37.4249 -1.84357 -0.558421 -0.00898483 2.93943 -5.84794 -2.11887 1.95593 -5.22132 -0.822229 
97.5192 38.2058 89.5561 -5.45249 -3.65287 -77.0217 -4.41348 8.64685 -6.21967 -0.516949 22.078 -1.02494 3.58446 -24.2579 0.770576 -4.13011 -23.2949 0.61811 -2.63019 10.8344 -16.7478 2.56004 -9.76016 0.218613 -2.46482 3.21553 -5.07269 -2.79109 4.65658 -6.18304 6.03561 0.0134657 1.48988 15.8137 -23.1331 3.10834 -7.78385 -18.9253 -33.7282 8.4308 2.06638 -0.15232 -1.90455 0.155426 -4.81473 -17.6747 5.87293 -2.37681 9.47419 -15.8621 37.4891 -1.61628 -0.582093 -0.00821084 3.08743 -5.9001 -2.27108 1.95941 -5.07374 -0.929136 
95.6124 37.9822 89.4475 -5.75006 -3.57046 -76.544 -2.83743 14.3348 -5.45283 -0.59917 17.2865 -3.05416 3.67772 -24.9232 0.81301 -3.3602 -23.973 1.43544 -3.39595 13.5972 -16.8541 4.21461 -12.0149 0.443724 -2.4638 3.22646 -5.28006 -2.76542 4.63899 -6.34076 6.00923 0.013277 1.5074 15.6441 -23.0829 2.87292 -7.97013 -20.1081 -34.1264 8.53275 1.87758 -0.14008 -1.80489 0.149993 -4.85914 -17.5133 5.94822 -2.57956 9.07904 -15.1238 37.4219 -1.50321 -0.505634 -0.00663334 3.09156 -5.86042 -2.34224 1.92438 -4.73448 -0.990178 
